{
	"asset":{
		"generator":"Khronos glTF Blender I/O v5.1.19",
		"version":"2.0"
	},
	"scene":0,
	"scenes":[
		{
			"name":"Scene",
			"nodes":[
				0,
				1,
				2,
				3,
				4,
				5
			]
		}
	],
	"nodes":[
		{
			"mesh":0,
			"name":"MainFrame"
		},
		{
			"mesh":1,
			"name":"Barrel",
			"rotation":[
				0.0004159724630881101,
				0.00151191430632025,
				-0.7059060335159302,
				0.7083038687705994
			],
			"scale":[
				0.1470600813627243,
				0.1470600813627243,
				0.1470600664615631
			],
			"translation":[
				-0.647844135761261,
				0.4009149670600891,
				0
			]
		},
		{
			"mesh":2,
			"name":"Barrel Roof",
			"scale":[
				0.039212461560964584,
				0.039212461560964584,
				0.039212461560964584
			],
			"translation":[
				0.2843724191188812,
				0.6638523936271667,
				-0.008006925694644451
			]
		},
		{
			"mesh":3,
			"name":"Trigger",
			"scale":[
				0.038021717220544815,
				0.038021717220544815,
				0.038021717220544815
			],
			"translation":[
				1.0636229515075684,
				0.1639334112405777,
				0
			]
		},
		{
			"mesh":4,
			"name":"kto prochital tot sdohnet",
			"rotation":[
				0,
				0,
				-0.7071068286895752,
				0.7071068286895752
			],
			"scale":[
				0.02114037796854973,
				0.02114037796854973,
				0.02114037796854973
			],
			"translation":[
				0.538290798664093,
				0.539188027381897,
				0
			]
		},
		{
			"mesh":5,
			"name":"Mag",
			"scale":[
				0.0845598578453064,
				0.0845598578453064,
				0.0845598578453064
			],
			"translation":[
				-0.04910781607031822,
				0.12072961777448654,
				0
			]
		}
	],
	"materials":[
		{
			"doubleSided":true,
			"name":"Material",
			"pbrMetallicRoughness":{
				"baseColorTexture":{
					"index":0
				},
				"metallicFactor":0
			}
		},
		{
			"doubleSided":true,
			"name":"Material.001",
			"pbrMetallicRoughness":{
				"baseColorTexture":{
					"index":1
				},
				"metallicFactor":0
			}
		},
		{
			"doubleSided":true,
			"name":"Material.002",
			"pbrMetallicRoughness":{
				"baseColorTexture":{
					"index":2
				},
				"metallicFactor":0
			}
		},
		{
			"doubleSided":true,
			"emissiveFactor":[
				1,
				1,
				1
			],
			"emissiveTexture":{
				"index":3
			},
			"name":"Material.004",
			"pbrMetallicRoughness":{
				"baseColorFactor":[
					0,
					0,
					0,
					1
				]
			}
		},
		{
			"doubleSided":true,
			"name":"Material.003",
			"pbrMetallicRoughness":{
				"baseColorTexture":{
					"index":4
				},
				"metallicFactor":0
			}
		},
		{
			"doubleSided":true,
			"name":"Material.005",
			"pbrMetallicRoughness":{
				"baseColorTexture":{
					"index":5
				},
				"metallicFactor":0
			}
		}
	],
	"meshes":[
		{
			"name":"main frame?",
			"primitives":[
				{
					"attributes":{
						"POSITION":0,
						"NORMAL":1,
						"TEXCOORD_0":2
					},
					"indices":3,
					"material":0
				}
			]
		},
		{
			"name":"Cylinder.001",
			"primitives":[
				{
					"attributes":{
						"POSITION":4,
						"NORMAL":5,
						"TEXCOORD_0":6
					},
					"indices":7,
					"material":1
				}
			]
		},
		{
			"name":"Cube",
			"primitives":[
				{
					"attributes":{
						"POSITION":8,
						"NORMAL":9,
						"TEXCOORD_0":10
					},
					"indices":11,
					"material":2
				}
			]
		},
		{
			"name":"Cube.001",
			"primitives":[
				{
					"attributes":{
						"POSITION":12,
						"NORMAL":13,
						"TEXCOORD_0":14
					},
					"indices":15,
					"material":3
				}
			]
		},
		{
			"name":"Cylinder.002",
			"primitives":[
				{
					"attributes":{
						"POSITION":16,
						"NORMAL":17,
						"TEXCOORD_0":18
					},
					"indices":19,
					"material":4
				}
			]
		},
		{
			"name":"Cube.002",
			"primitives":[
				{
					"attributes":{
						"POSITION":20,
						"NORMAL":21,
						"TEXCOORD_0":22
					},
					"indices":23,
					"material":5
				}
			]
		}
	],
	"textures":[
		{
			"sampler":0,
			"source":0
		},
		{
			"sampler":0,
			"source":1
		},
		{
			"sampler":0,
			"source":2
		},
		{
			"sampler":0,
			"source":1
		},
		{
			"sampler":0,
			"source":1
		},
		{
			"sampler":0,
			"source":3
		}
	],
	"images":[
		{
			"mimeType":"image/png",
			"name":"MainFramePixelated",
			"uri":"MainFramePixelated.png"
		},
		{
			"mimeType":"image/png",
			"name":"BarrelpaintedPixelated",
			"uri":"BarrelpaintedPixelated.png"
		},
		{
			"mimeType":"image/png",
			"name":"Barrel Roof Pixelated",
			"uri":"Barrel%20Roof%20Pixelated.png"
		},
		{
			"mimeType":"image/png",
			"name":"Mag_painter",
			"uri":"Mag_painter.png"
		}
	],
	"accessors":[
		{
			"bufferView":0,
			"componentType":5126,
			"count":597,
			"max":[
				1.774971604347229,
				0.7270888686180115,
				0.13669846951961517
			],
			"min":[
				-4.5934295654296875,
				-0.2523336410522461,
				-0.13669846951961517
			],
			"type":"VEC3"
		},
		{
			"bufferView":1,
			"componentType":5126,
			"count":597,
			"type":"VEC3"
		},
		{
			"bufferView":2,
			"componentType":5126,
			"count":597,
			"type":"VEC2"
		},
		{
			"bufferView":3,
			"componentType":5123,
			"count":1080,
			"type":"SCALAR"
		},
		{
			"bufferView":4,
			"componentType":5126,
			"count":168,
			"max":[
				1.4906150102615356,
				2.4779915809631348,
				1.4870952367782593
			],
			"min":[
				-1.490615963935852,
				-0.9829977750778198,
				-1.4870952367782593
			],
			"type":"VEC3"
		},
		{
			"bufferView":5,
			"componentType":5126,
			"count":168,
			"type":"VEC3"
		},
		{
			"bufferView":6,
			"componentType":5126,
			"count":168,
			"type":"VEC2"
		},
		{
			"bufferView":7,
			"componentType":5123,
			"count":264,
			"type":"SCALAR"
		},
		{
			"bufferView":8,
			"componentType":5126,
			"count":169,
			"max":[
				-1.0064513683319092,
				1.1029255390167236,
				5.705925941467285
			],
			"min":[
				-17.389728546142578,
				-3.226090908050537,
				-5.705925941467285
			],
			"type":"VEC3"
		},
		{
			"bufferView":9,
			"componentType":5126,
			"count":169,
			"type":"VEC3"
		},
		{
			"bufferView":10,
			"componentType":5126,
			"count":169,
			"type":"VEC2"
		},
		{
			"bufferView":11,
			"componentType":5123,
			"count":330,
			"type":"SCALAR"
		},
		{
			"bufferView":12,
			"componentType":5126,
			"count":96,
			"max":[
				1.9579622745513916,
				1.6598219871520996,
				0.2023119479417801
			],
			"min":[
				-0.6403742432594299,
				-2.3715109825134277,
				-0.2023119479417801
			],
			"type":"VEC3"
		},
		{
			"bufferView":13,
			"componentType":5126,
			"count":96,
			"type":"VEC3"
		},
		{
			"bufferView":14,
			"componentType":5126,
			"count":96,
			"type":"VEC2"
		},
		{
			"bufferView":15,
			"componentType":5123,
			"count":156,
			"type":"SCALAR"
		},
		{
			"bufferView":16,
			"componentType":5126,
			"count":20,
			"max":[
				1.0000008344650269,
				11.933157920837402,
				1
			],
			"min":[
				-1,
				-1,
				-1
			],
			"type":"VEC3"
		},
		{
			"bufferView":17,
			"componentType":5126,
			"count":20,
			"type":"VEC3"
		},
		{
			"bufferView":18,
			"componentType":5126,
			"count":20,
			"type":"VEC2"
		},
		{
			"bufferView":19,
			"componentType":5123,
			"count":30,
			"type":"SCALAR"
		},
		{
			"bufferView":20,
			"componentType":5126,
			"count":74,
			"max":[
				1.693697452545166,
				1.173159122467041,
				0.7196654677391052
			],
			"min":[
				-1.6526319980621338,
				-2.0275139808654785,
				-0.7196654677391052
			],
			"type":"VEC3"
		},
		{
			"bufferView":21,
			"componentType":5126,
			"count":74,
			"type":"VEC3"
		},
		{
			"bufferView":22,
			"componentType":5126,
			"count":74,
			"type":"VEC2"
		},
		{
			"bufferView":23,
			"componentType":5123,
			"count":132,
			"type":"SCALAR"
		}
	],
	"bufferViews":[
		{
			"buffer":0,
			"byteLength":7164,
			"byteOffset":0,
			"target":34962
		},
		{
			"buffer":0,
			"byteLength":7164,
			"byteOffset":7164,
			"target":34962
		},
		{
			"buffer":0,
			"byteLength":4776,
			"byteOffset":14328,
			"target":34962
		},
		{
			"buffer":0,
			"byteLength":2160,
			"byteOffset":19104,
			"target":34963
		},
		{
			"buffer":0,
			"byteLength":2016,
			"byteOffset":21264,
			"target":34962
		},
		{
			"buffer":0,
			"byteLength":2016,
			"byteOffset":23280,
			"target":34962
		},
		{
			"buffer":0,
			"byteLength":1344,
			"byteOffset":25296,
			"target":34962
		},
		{
			"buffer":0,
			"byteLength":528,
			"byteOffset":26640,
			"target":34963
		},
		{
			"buffer":0,
			"byteLength":2028,
			"byteOffset":27168,
			"target":34962
		},
		{
			"buffer":0,
			"byteLength":2028,
			"byteOffset":29196,
			"target":34962
		},
		{
			"buffer":0,
			"byteLength":1352,
			"byteOffset":31224,
			"target":34962
		},
		{
			"buffer":0,
			"byteLength":660,
			"byteOffset":32576,
			"target":34963
		},
		{
			"buffer":0,
			"byteLength":1152,
			"byteOffset":33236,
			"target":34962
		},
		{
			"buffer":0,
			"byteLength":1152,
			"byteOffset":34388,
			"target":34962
		},
		{
			"buffer":0,
			"byteLength":768,
			"byteOffset":35540,
			"target":34962
		},
		{
			"buffer":0,
			"byteLength":312,
			"byteOffset":36308,
			"target":34963
		},
		{
			"buffer":0,
			"byteLength":240,
			"byteOffset":36620,
			"target":34962
		},
		{
			"buffer":0,
			"byteLength":240,
			"byteOffset":36860,
			"target":34962
		},
		{
			"buffer":0,
			"byteLength":160,
			"byteOffset":37100,
			"target":34962
		},
		{
			"buffer":0,
			"byteLength":60,
			"byteOffset":37260,
			"target":34963
		},
		{
			"buffer":0,
			"byteLength":888,
			"byteOffset":37320,
			"target":34962
		},
		{
			"buffer":0,
			"byteLength":888,
			"byteOffset":38208,
			"target":34962
		},
		{
			"buffer":0,
			"byteLength":592,
			"byteOffset":39096,
			"target":34962
		},
		{
			"buffer":0,
			"byteLength":264,
			"byteOffset":39688,
			"target":34963
		}
	],
	"samplers":[
		{
			"magFilter":9728,
			"minFilter":9984
		}
	],
	"buffers":[
		{
			"byteLength":39952,
			"uri":"Untitledgtybc.bin"
		}
	]
}
