{
	"asset":{
		"generator":"Khronos glTF Blender I/O v5.1.19",
		"version":"2.0"
	},
	"extensionsUsed":[
		"KHR_materials_emissive_strength"
	],
	"scene":0,
	"scenes":[
		{
			"name":"Scene",
			"nodes":[
				0,
				1
			]
		}
	],
	"nodes":[
		{
			"mesh":0,
			"name":"MainFrame",
			"scale":[
				0.7292642593383789,
				0.7292642593383789,
				0.7292642593383789
			]
		},
		{
			"mesh":1,
			"name":"Icosphere",
			"rotation":[
				0,
				0.1736481934785843,
				0,
				0.9848078489303589
			],
			"scale":[
				0.40109536051750183,
				0.40109536051750183,
				0.40109536051750183
			]
		}
	],
	"materials":[
		{
			"doubleSided":true,
			"name":"Material",
			"pbrMetallicRoughness":{
				"baseColorTexture":{
					"index":0
				}
			}
		},
		{
			"doubleSided":true,
			"emissiveFactor":[
				1,
				1,
				1
			],
			"emissiveTexture":{
				"index":1
			},
			"extensions":{
				"KHR_materials_emissive_strength":{
					"emissiveStrength":3.1999998092651367
				}
			},
			"name":"Material.001",
			"pbrMetallicRoughness":{
				"baseColorFactor":[
					0,
					0,
					0,
					1
				]
			}
		}
	],
	"meshes":[
		{
			"name":"Cube",
			"primitives":[
				{
					"attributes":{
						"POSITION":0,
						"NORMAL":1,
						"TEXCOORD_0":2
					},
					"indices":3,
					"material":0
				}
			]
		},
		{
			"name":"Icosphere",
			"primitives":[
				{
					"attributes":{
						"POSITION":4,
						"NORMAL":5,
						"TEXCOORD_0":6
					},
					"indices":7,
					"material":1
				}
			]
		}
	],
	"textures":[
		{
			"sampler":0,
			"source":0
		},
		{
			"sampler":0,
			"source":1
		}
	],
	"images":[
		{
			"mimeType":"image/png",
			"name":"untitledpixelated",
			"uri":"untitledpixelated.png"
		},
		{
			"mimeType":"image/png",
			"name":"Icosphere_pixelated",
			"uri":"Icosphere_pixelated.png"
		}
	],
	"accessors":[
		{
			"bufferView":0,
			"componentType":5126,
			"count":470,
			"max":[
				3.989792585372925,
				9.927364349365234,
				2.3408970832824707
			],
			"min":[
				-2.329022169113159,
				-2.9588961601257324,
				-2.3408970832824707
			],
			"type":"VEC3"
		},
		{
			"bufferView":1,
			"componentType":5126,
			"count":470,
			"type":"VEC3"
		},
		{
			"bufferView":2,
			"componentType":5126,
			"count":470,
			"type":"VEC2"
		},
		{
			"bufferView":3,
			"componentType":5123,
			"count":882,
			"type":"SCALAR"
		},
		{
			"bufferView":4,
			"componentType":5126,
			"count":60,
			"max":[
				3.685030698776245,
				4.119999885559082,
				3.504636764526367
			],
			"min":[
				-3.685030698776245,
				-4.119999885559082,
				-3.504636764526367
			],
			"type":"VEC3"
		},
		{
			"bufferView":5,
			"componentType":5126,
			"count":60,
			"type":"VEC3"
		},
		{
			"bufferView":6,
			"componentType":5126,
			"count":60,
			"type":"VEC2"
		},
		{
			"bufferView":7,
			"componentType":5123,
			"count":60,
			"type":"SCALAR"
		}
	],
	"bufferViews":[
		{
			"buffer":0,
			"byteLength":5640,
			"byteOffset":0,
			"target":34962
		},
		{
			"buffer":0,
			"byteLength":5640,
			"byteOffset":5640,
			"target":34962
		},
		{
			"buffer":0,
			"byteLength":3760,
			"byteOffset":11280,
			"target":34962
		},
		{
			"buffer":0,
			"byteLength":1764,
			"byteOffset":15040,
			"target":34963
		},
		{
			"buffer":0,
			"byteLength":720,
			"byteOffset":16804,
			"target":34962
		},
		{
			"buffer":0,
			"byteLength":720,
			"byteOffset":17524,
			"target":34962
		},
		{
			"buffer":0,
			"byteLength":480,
			"byteOffset":18244,
			"target":34962
		},
		{
			"buffer":0,
			"byteLength":120,
			"byteOffset":18724,
			"target":34963
		}
	],
	"samplers":[
		{
			"magFilter":9728,
			"minFilter":9984
		}
	],
	"buffers":[
		{
			"byteLength":18844,
			"uri":"grenade.bin"
		}
	]
}
