{
	"asset":{
		"generator":"Khronos glTF Blender I/O v5.1.19",
		"version":"2.0"
	},
	"scene":0,
	"scenes":[
		{
			"name":"Scene",
			"nodes":[
				10
			]
		}
	],
	"nodes":[
		{
			"mesh":0,
			"name":"Trigger",
			"rotation":[
				1.587374072187231e-07,
				-3.908745327407814e-08,
				-0.9802005887031555,
				0.19800713658332825
			],
			"scale":[
				0.038021717220544815,
				0.03802171349525452,
				0.03802170976996422
			],
			"translation":[
				0.016558997333049774,
				0.0665057897567749,
				0.0030608000233769417
			]
		},
		{
			"children":[
				0
			],
			"name":"trigger",
			"rotation":[
				-0.6931065320968628,
				-0.1400122493505478,
				0.6931064128875732,
				0.14001227915287018
			],
			"scale":[
				1,
				0.9999999403953552,
				1.0000003576278687
			],
			"translation":[
				-8.605638868175447e-08,
				0.46863865852355957,
				-0.5140340924263
			]
		},
		{
			"mesh":1,
			"name":"Mag",
			"rotation":[
				4.214684778958144e-08,
				-0.7071068286895752,
				-6.866592865595496e-15,
				0.7071067094802856
			],
			"scale":[
				0.0845598578453064,
				0.0845598578453064,
				0.0845598578453064
			],
			"translation":[
				-0.0030606871005147696,
				0.17215946316719055,
				-0.00236991117708385
			]
		},
		{
			"children":[
				2
			],
			"name":"mag",
			"rotation":[
				0,
				1.1920927533992653e-07,
				0,
				1
			],
			"scale":[
				1,
				0.9999999403953552,
				1
			],
			"translation":[
				-2.8783688321709633e-07,
				0.19841241836547852,
				-1.6654713153839111
			]
		},
		{
			"mesh":2,
			"name":"Barrel",
			"rotation":[
				0.70806884765625,
				-0.0006509392987936735,
				-0.70614093542099,
				0.0017469292506575584
			],
			"scale":[
				0.1470600664615631,
				0.1470600664615631,
				0.1470600664615631
			],
			"translation":[
				-0.0030606724321842194,
				0.3726211190223694,
				0.006296992301940918
			]
		},
		{
			"children":[
				4
			],
			"name":"barrel",
			"rotation":[
				-0.7071067690849304,
				2.7055386819796468e-09,
				2.7055386819796468e-09,
				0.7071067690849304
			],
			"translation":[
				-3.895620466209948e-07,
				0.6444602012634277,
				-1.8939564228057861
			]
		},
		{
			"mesh":3,
			"name":"Barrel Roof",
			"rotation":[
				0,
				-0.7071066498756409,
				0,
				0.7071068286895752
			],
			"scale":[
				0.039212461560964584,
				0.039212461560964584,
				0.039212461560964584
			],
			"translation":[
				0.004945969674736261,
				0.9136946201324463,
				-1.334360957145691
			]
		},
		{
			"mesh":4,
			"name":"kto prochital tot sdohnet",
			"rotation":[
				0.5,
				-0.4999999403953552,
				-0.5,
				0.5000000596046448
			],
			"scale":[
				0.02114037796854973,
				0.02114037796854973,
				0.02114037796854973
			],
			"translation":[
				-0.0030610053800046444,
				0.7890302538871765,
				-1.0804426670074463
			]
		},
		{
			"mesh":5,
			"name":"MainFrame",
			"rotation":[
				0,
				-0.7071067094802856,
				0,
				0.7071068286895752
			],
			"translation":[
				-0.0030609755776822567,
				0.24984224140644073,
				-1.6187334060668945
			]
		},
		{
			"children":[
				1,
				3,
				5,
				6,
				7,
				8
			],
			"name":"root"
		},
		{
			"children":[
				9
			],
			"name":"STR_main",
			"translation":[
				-5.1146867917850614e-05,
				-0.24984224140644073,
				1.4191765785217285
			]
		}
	],
	"animations":[
		{
			"channels":[
				{
					"sampler":0,
					"target":{
						"node":9,
						"path":"translation"
					}
				},
				{
					"sampler":1,
					"target":{
						"node":9,
						"path":"rotation"
					}
				},
				{
					"sampler":2,
					"target":{
						"node":9,
						"path":"scale"
					}
				},
				{
					"sampler":3,
					"target":{
						"node":1,
						"path":"translation"
					}
				},
				{
					"sampler":4,
					"target":{
						"node":1,
						"path":"rotation"
					}
				},
				{
					"sampler":5,
					"target":{
						"node":1,
						"path":"scale"
					}
				},
				{
					"sampler":6,
					"target":{
						"node":3,
						"path":"translation"
					}
				},
				{
					"sampler":7,
					"target":{
						"node":3,
						"path":"rotation"
					}
				},
				{
					"sampler":8,
					"target":{
						"node":3,
						"path":"scale"
					}
				},
				{
					"sampler":9,
					"target":{
						"node":5,
						"path":"translation"
					}
				},
				{
					"sampler":10,
					"target":{
						"node":5,
						"path":"rotation"
					}
				},
				{
					"sampler":11,
					"target":{
						"node":5,
						"path":"scale"
					}
				}
			],
			"name":"str_shoot_anim",
			"samplers":[
				{
					"input":24,
					"interpolation":"LINEAR",
					"output":25
				},
				{
					"input":24,
					"interpolation":"LINEAR",
					"output":26
				},
				{
					"input":27,
					"interpolation":"STEP",
					"output":28
				},
				{
					"input":27,
					"interpolation":"STEP",
					"output":29
				},
				{
					"input":27,
					"interpolation":"STEP",
					"output":30
				},
				{
					"input":27,
					"interpolation":"STEP",
					"output":31
				},
				{
					"input":27,
					"interpolation":"STEP",
					"output":32
				},
				{
					"input":27,
					"interpolation":"STEP",
					"output":33
				},
				{
					"input":27,
					"interpolation":"STEP",
					"output":34
				},
				{
					"input":27,
					"interpolation":"STEP",
					"output":35
				},
				{
					"input":24,
					"interpolation":"LINEAR",
					"output":36
				},
				{
					"input":27,
					"interpolation":"STEP",
					"output":28
				}
			]
		},
		{
			"channels":[
				{
					"sampler":0,
					"target":{
						"node":9,
						"path":"translation"
					}
				},
				{
					"sampler":1,
					"target":{
						"node":9,
						"path":"rotation"
					}
				},
				{
					"sampler":2,
					"target":{
						"node":9,
						"path":"scale"
					}
				},
				{
					"sampler":3,
					"target":{
						"node":1,
						"path":"translation"
					}
				},
				{
					"sampler":4,
					"target":{
						"node":1,
						"path":"rotation"
					}
				},
				{
					"sampler":5,
					"target":{
						"node":1,
						"path":"scale"
					}
				},
				{
					"sampler":6,
					"target":{
						"node":3,
						"path":"translation"
					}
				},
				{
					"sampler":7,
					"target":{
						"node":3,
						"path":"rotation"
					}
				},
				{
					"sampler":8,
					"target":{
						"node":3,
						"path":"scale"
					}
				},
				{
					"sampler":9,
					"target":{
						"node":5,
						"path":"translation"
					}
				},
				{
					"sampler":10,
					"target":{
						"node":5,
						"path":"rotation"
					}
				},
				{
					"sampler":11,
					"target":{
						"node":5,
						"path":"scale"
					}
				}
			],
			"name":"str_reload",
			"samplers":[
				{
					"input":37,
					"interpolation":"LINEAR",
					"output":38
				},
				{
					"input":37,
					"interpolation":"LINEAR",
					"output":39
				},
				{
					"input":40,
					"interpolation":"STEP",
					"output":28
				},
				{
					"input":40,
					"interpolation":"STEP",
					"output":29
				},
				{
					"input":40,
					"interpolation":"STEP",
					"output":30
				},
				{
					"input":40,
					"interpolation":"STEP",
					"output":31
				},
				{
					"input":37,
					"interpolation":"LINEAR",
					"output":41
				},
				{
					"input":37,
					"interpolation":"LINEAR",
					"output":42
				},
				{
					"input":40,
					"interpolation":"STEP",
					"output":34
				},
				{
					"input":40,
					"interpolation":"STEP",
					"output":35
				},
				{
					"input":40,
					"interpolation":"STEP",
					"output":43
				},
				{
					"input":40,
					"interpolation":"STEP",
					"output":28
				}
			]
		},
		{
			"channels":[
				{
					"sampler":0,
					"target":{
						"node":9,
						"path":"translation"
					}
				},
				{
					"sampler":1,
					"target":{
						"node":9,
						"path":"rotation"
					}
				},
				{
					"sampler":2,
					"target":{
						"node":9,
						"path":"scale"
					}
				},
				{
					"sampler":3,
					"target":{
						"node":1,
						"path":"translation"
					}
				},
				{
					"sampler":4,
					"target":{
						"node":1,
						"path":"rotation"
					}
				},
				{
					"sampler":5,
					"target":{
						"node":1,
						"path":"scale"
					}
				},
				{
					"sampler":6,
					"target":{
						"node":3,
						"path":"translation"
					}
				},
				{
					"sampler":7,
					"target":{
						"node":3,
						"path":"rotation"
					}
				},
				{
					"sampler":8,
					"target":{
						"node":3,
						"path":"scale"
					}
				},
				{
					"sampler":9,
					"target":{
						"node":5,
						"path":"translation"
					}
				},
				{
					"sampler":10,
					"target":{
						"node":5,
						"path":"rotation"
					}
				},
				{
					"sampler":11,
					"target":{
						"node":5,
						"path":"scale"
					}
				}
			],
			"name":"str_melee_text_anim",
			"samplers":[
				{
					"input":44,
					"interpolation":"LINEAR",
					"output":45
				},
				{
					"input":44,
					"interpolation":"LINEAR",
					"output":46
				},
				{
					"input":47,
					"interpolation":"STEP",
					"output":28
				},
				{
					"input":47,
					"interpolation":"STEP",
					"output":29
				},
				{
					"input":47,
					"interpolation":"STEP",
					"output":30
				},
				{
					"input":47,
					"interpolation":"STEP",
					"output":31
				},
				{
					"input":47,
					"interpolation":"STEP",
					"output":32
				},
				{
					"input":47,
					"interpolation":"STEP",
					"output":48
				},
				{
					"input":47,
					"interpolation":"STEP",
					"output":34
				},
				{
					"input":47,
					"interpolation":"STEP",
					"output":35
				},
				{
					"input":47,
					"interpolation":"STEP",
					"output":43
				},
				{
					"input":47,
					"interpolation":"STEP",
					"output":28
				}
			]
		}
	],
	"materials":[
		{
			"doubleSided":true,
			"name":"Material.004",
			"pbrMetallicRoughness":{
				"baseColorTexture":{
					"index":0
				},
				"metallicFactor":0
			}
		},
		{
			"doubleSided":true,
			"name":"Material.005",
			"pbrMetallicRoughness":{
				"baseColorTexture":{
					"index":1
				},
				"metallicFactor":0
			}
		},
		{
			"doubleSided":true,
			"name":"Material.001",
			"pbrMetallicRoughness":{
				"baseColorTexture":{
					"index":2
				},
				"metallicFactor":0
			}
		},
		{
			"doubleSided":true,
			"name":"Material.002",
			"pbrMetallicRoughness":{
				"baseColorTexture":{
					"index":3
				},
				"metallicFactor":0
			}
		},
		{
			"doubleSided":true,
			"name":"Material.003",
			"pbrMetallicRoughness":{
				"baseColorTexture":{
					"index":4
				},
				"metallicFactor":0
			}
		},
		{
			"doubleSided":true,
			"name":"Material",
			"pbrMetallicRoughness":{
				"baseColorTexture":{
					"index":5
				},
				"metallicFactor":0
			}
		}
	],
	"meshes":[
		{
			"name":"Cube.001",
			"primitives":[
				{
					"attributes":{
						"POSITION":0,
						"NORMAL":1,
						"TEXCOORD_0":2
					},
					"indices":3,
					"material":0
				}
			]
		},
		{
			"name":"Cube.002",
			"primitives":[
				{
					"attributes":{
						"POSITION":4,
						"NORMAL":5,
						"TEXCOORD_0":6
					},
					"indices":7,
					"material":1
				}
			]
		},
		{
			"name":"Cylinder.001",
			"primitives":[
				{
					"attributes":{
						"POSITION":8,
						"NORMAL":9,
						"TEXCOORD_0":10
					},
					"indices":11,
					"material":2
				}
			]
		},
		{
			"name":"Cube",
			"primitives":[
				{
					"attributes":{
						"POSITION":12,
						"NORMAL":13,
						"TEXCOORD_0":14
					},
					"indices":15,
					"material":3
				}
			]
		},
		{
			"name":"Cylinder.002",
			"primitives":[
				{
					"attributes":{
						"POSITION":16,
						"NORMAL":17,
						"TEXCOORD_0":18
					},
					"indices":19,
					"material":4
				}
			]
		},
		{
			"name":"main frame?",
			"primitives":[
				{
					"attributes":{
						"POSITION":20,
						"NORMAL":21,
						"TEXCOORD_0":22
					},
					"indices":23,
					"material":5
				}
			]
		}
	],
	"textures":[
		{
			"sampler":0,
			"source":0
		},
		{
			"sampler":0,
			"source":1
		},
		{
			"sampler":0,
			"source":0
		},
		{
			"sampler":0,
			"source":2
		},
		{
			"sampler":0,
			"source":0
		},
		{
			"sampler":0,
			"source":3
		}
	],
	"images":[
		{
			"mimeType":"image/jpeg",
			"name":"BarrelpaintedPixelated",
			"uri":"BarrelpaintedPixelated.jpg"
		},
		{
			"mimeType":"image/jpeg",
			"name":"Mag_painter",
			"uri":"Mag_painter.jpg"
		},
		{
			"mimeType":"image/jpeg",
			"name":"Barrel Roof Pixelated",
			"uri":"Barrel%20Roof%20Pixelated.jpg"
		},
		{
			"mimeType":"image/jpeg",
			"name":"MainFramePixelated",
			"uri":"MainFramePixelated.jpg"
		}
	],
	"skins":[
		{
			"inverseBindMatrices":49,
			"joints":[
				9,
				1,
				3,
				5
			],
			"name":"STR_main"
		}
	],
	"accessors":[
		{
			"bufferView":0,
			"componentType":5126,
			"count":96,
			"max":[
				1.9579622745513916,
				1.6598219871520996,
				0.2023119479417801
			],
			"min":[
				-0.6403742432594299,
				-2.3715109825134277,
				-0.2023119479417801
			],
			"type":"VEC3"
		},
		{
			"bufferView":1,
			"componentType":5126,
			"count":96,
			"type":"VEC3"
		},
		{
			"bufferView":2,
			"componentType":5126,
			"count":96,
			"type":"VEC2"
		},
		{
			"bufferView":3,
			"componentType":5123,
			"count":156,
			"type":"SCALAR"
		},
		{
			"bufferView":4,
			"componentType":5126,
			"count":74,
			"max":[
				1.693697452545166,
				1.173159122467041,
				0.7196654677391052
			],
			"min":[
				-1.6526319980621338,
				-2.0275139808654785,
				-0.7196654677391052
			],
			"type":"VEC3"
		},
		{
			"bufferView":5,
			"componentType":5126,
			"count":74,
			"type":"VEC3"
		},
		{
			"bufferView":6,
			"componentType":5126,
			"count":74,
			"type":"VEC2"
		},
		{
			"bufferView":7,
			"componentType":5123,
			"count":132,
			"type":"SCALAR"
		},
		{
			"bufferView":8,
			"componentType":5126,
			"count":168,
			"max":[
				1.4906150102615356,
				2.4779915809631348,
				1.4870952367782593
			],
			"min":[
				-1.490615963935852,
				-0.9829977750778198,
				-1.4870952367782593
			],
			"type":"VEC3"
		},
		{
			"bufferView":9,
			"componentType":5126,
			"count":168,
			"type":"VEC3"
		},
		{
			"bufferView":10,
			"componentType":5126,
			"count":168,
			"type":"VEC2"
		},
		{
			"bufferView":11,
			"componentType":5123,
			"count":264,
			"type":"SCALAR"
		},
		{
			"bufferView":12,
			"componentType":5126,
			"count":169,
			"max":[
				-1.0064513683319092,
				1.1029255390167236,
				5.705925941467285
			],
			"min":[
				-17.389728546142578,
				-3.226090908050537,
				-5.705925941467285
			],
			"type":"VEC3"
		},
		{
			"bufferView":13,
			"componentType":5126,
			"count":169,
			"type":"VEC3"
		},
		{
			"bufferView":14,
			"componentType":5126,
			"count":169,
			"type":"VEC2"
		},
		{
			"bufferView":15,
			"componentType":5123,
			"count":330,
			"type":"SCALAR"
		},
		{
			"bufferView":16,
			"componentType":5126,
			"count":20,
			"max":[
				1.0000008344650269,
				11.933157920837402,
				1
			],
			"min":[
				-1,
				-1,
				-1
			],
			"type":"VEC3"
		},
		{
			"bufferView":17,
			"componentType":5126,
			"count":20,
			"type":"VEC3"
		},
		{
			"bufferView":18,
			"componentType":5126,
			"count":20,
			"type":"VEC2"
		},
		{
			"bufferView":19,
			"componentType":5123,
			"count":30,
			"type":"SCALAR"
		},
		{
			"bufferView":20,
			"componentType":5126,
			"count":597,
			"max":[
				1.774971604347229,
				0.7270888686180115,
				0.13669846951961517
			],
			"min":[
				-4.5934295654296875,
				-0.2523336410522461,
				-0.13669846951961517
			],
			"type":"VEC3"
		},
		{
			"bufferView":21,
			"componentType":5126,
			"count":597,
			"type":"VEC3"
		},
		{
			"bufferView":22,
			"componentType":5126,
			"count":597,
			"type":"VEC2"
		},
		{
			"bufferView":23,
			"componentType":5123,
			"count":1080,
			"type":"SCALAR"
		},
		{
			"bufferView":24,
			"componentType":5126,
			"count":14,
			"max":[
				0.5416666666666666
			],
			"min":[
				0
			],
			"type":"SCALAR"
		},
		{
			"bufferView":25,
			"componentType":5126,
			"count":14,
			"type":"VEC3"
		},
		{
			"bufferView":26,
			"componentType":5126,
			"count":14,
			"type":"VEC4"
		},
		{
			"bufferView":27,
			"componentType":5126,
			"count":2,
			"max":[
				0.5416666666666666
			],
			"min":[
				0
			],
			"type":"SCALAR"
		},
		{
			"bufferView":28,
			"componentType":5126,
			"count":2,
			"type":"VEC3"
		},
		{
			"bufferView":29,
			"componentType":5126,
			"count":2,
			"type":"VEC3"
		},
		{
			"bufferView":30,
			"componentType":5126,
			"count":2,
			"type":"VEC4"
		},
		{
			"bufferView":31,
			"componentType":5126,
			"count":2,
			"type":"VEC3"
		},
		{
			"bufferView":32,
			"componentType":5126,
			"count":2,
			"type":"VEC3"
		},
		{
			"bufferView":33,
			"componentType":5126,
			"count":2,
			"type":"VEC4"
		},
		{
			"bufferView":34,
			"componentType":5126,
			"count":2,
			"type":"VEC3"
		},
		{
			"bufferView":35,
			"componentType":5126,
			"count":2,
			"type":"VEC3"
		},
		{
			"bufferView":36,
			"componentType":5126,
			"count":14,
			"type":"VEC4"
		},
		{
			"bufferView":37,
			"componentType":5126,
			"count":57,
			"max":[
				2.3333333333333335
			],
			"min":[
				0
			],
			"type":"SCALAR"
		},
		{
			"bufferView":38,
			"componentType":5126,
			"count":57,
			"type":"VEC3"
		},
		{
			"bufferView":39,
			"componentType":5126,
			"count":57,
			"type":"VEC4"
		},
		{
			"bufferView":40,
			"componentType":5126,
			"count":2,
			"max":[
				2.3333333333333335
			],
			"min":[
				0
			],
			"type":"SCALAR"
		},
		{
			"bufferView":41,
			"componentType":5126,
			"count":57,
			"type":"VEC3"
		},
		{
			"bufferView":42,
			"componentType":5126,
			"count":57,
			"type":"VEC4"
		},
		{
			"bufferView":43,
			"componentType":5126,
			"count":2,
			"type":"VEC4"
		},
		{
			"bufferView":44,
			"componentType":5126,
			"count":23,
			"max":[
				0.9166666666666666
			],
			"min":[
				0
			],
			"type":"SCALAR"
		},
		{
			"bufferView":45,
			"componentType":5126,
			"count":23,
			"type":"VEC3"
		},
		{
			"bufferView":46,
			"componentType":5126,
			"count":23,
			"type":"VEC4"
		},
		{
			"bufferView":47,
			"componentType":5126,
			"count":2,
			"max":[
				0.9166666666666666
			],
			"min":[
				0
			],
			"type":"SCALAR"
		},
		{
			"bufferView":48,
			"componentType":5126,
			"count":2,
			"type":"VEC4"
		},
		{
			"bufferView":49,
			"componentType":5126,
			"count":4,
			"type":"MAT4"
		}
	],
	"bufferViews":[
		{
			"buffer":0,
			"byteLength":1152,
			"byteOffset":0,
			"target":34962
		},
		{
			"buffer":0,
			"byteLength":1152,
			"byteOffset":1152,
			"target":34962
		},
		{
			"buffer":0,
			"byteLength":768,
			"byteOffset":2304,
			"target":34962
		},
		{
			"buffer":0,
			"byteLength":312,
			"byteOffset":3072,
			"target":34963
		},
		{
			"buffer":0,
			"byteLength":888,
			"byteOffset":3384,
			"target":34962
		},
		{
			"buffer":0,
			"byteLength":888,
			"byteOffset":4272,
			"target":34962
		},
		{
			"buffer":0,
			"byteLength":592,
			"byteOffset":5160,
			"target":34962
		},
		{
			"buffer":0,
			"byteLength":264,
			"byteOffset":5752,
			"target":34963
		},
		{
			"buffer":0,
			"byteLength":2016,
			"byteOffset":6016,
			"target":34962
		},
		{
			"buffer":0,
			"byteLength":2016,
			"byteOffset":8032,
			"target":34962
		},
		{
			"buffer":0,
			"byteLength":1344,
			"byteOffset":10048,
			"target":34962
		},
		{
			"buffer":0,
			"byteLength":528,
			"byteOffset":11392,
			"target":34963
		},
		{
			"buffer":0,
			"byteLength":2028,
			"byteOffset":11920,
			"target":34962
		},
		{
			"buffer":0,
			"byteLength":2028,
			"byteOffset":13948,
			"target":34962
		},
		{
			"buffer":0,
			"byteLength":1352,
			"byteOffset":15976,
			"target":34962
		},
		{
			"buffer":0,
			"byteLength":660,
			"byteOffset":17328,
			"target":34963
		},
		{
			"buffer":0,
			"byteLength":240,
			"byteOffset":17988,
			"target":34962
		},
		{
			"buffer":0,
			"byteLength":240,
			"byteOffset":18228,
			"target":34962
		},
		{
			"buffer":0,
			"byteLength":160,
			"byteOffset":18468,
			"target":34962
		},
		{
			"buffer":0,
			"byteLength":60,
			"byteOffset":18628,
			"target":34963
		},
		{
			"buffer":0,
			"byteLength":7164,
			"byteOffset":18688,
			"target":34962
		},
		{
			"buffer":0,
			"byteLength":7164,
			"byteOffset":25852,
			"target":34962
		},
		{
			"buffer":0,
			"byteLength":4776,
			"byteOffset":33016,
			"target":34962
		},
		{
			"buffer":0,
			"byteLength":2160,
			"byteOffset":37792,
			"target":34963
		},
		{
			"buffer":0,
			"byteLength":56,
			"byteOffset":39952
		},
		{
			"buffer":0,
			"byteLength":168,
			"byteOffset":40008
		},
		{
			"buffer":0,
			"byteLength":224,
			"byteOffset":40176
		},
		{
			"buffer":0,
			"byteLength":8,
			"byteOffset":40400
		},
		{
			"buffer":0,
			"byteLength":24,
			"byteOffset":40408
		},
		{
			"buffer":0,
			"byteLength":24,
			"byteOffset":40432
		},
		{
			"buffer":0,
			"byteLength":32,
			"byteOffset":40456
		},
		{
			"buffer":0,
			"byteLength":24,
			"byteOffset":40488
		},
		{
			"buffer":0,
			"byteLength":24,
			"byteOffset":40512
		},
		{
			"buffer":0,
			"byteLength":32,
			"byteOffset":40536
		},
		{
			"buffer":0,
			"byteLength":24,
			"byteOffset":40568
		},
		{
			"buffer":0,
			"byteLength":24,
			"byteOffset":40592
		},
		{
			"buffer":0,
			"byteLength":224,
			"byteOffset":40616
		},
		{
			"buffer":0,
			"byteLength":228,
			"byteOffset":40840
		},
		{
			"buffer":0,
			"byteLength":684,
			"byteOffset":41068
		},
		{
			"buffer":0,
			"byteLength":912,
			"byteOffset":41752
		},
		{
			"buffer":0,
			"byteLength":8,
			"byteOffset":42664
		},
		{
			"buffer":0,
			"byteLength":684,
			"byteOffset":42672
		},
		{
			"buffer":0,
			"byteLength":912,
			"byteOffset":43356
		},
		{
			"buffer":0,
			"byteLength":32,
			"byteOffset":44268
		},
		{
			"buffer":0,
			"byteLength":92,
			"byteOffset":44300
		},
		{
			"buffer":0,
			"byteLength":276,
			"byteOffset":44392
		},
		{
			"buffer":0,
			"byteLength":368,
			"byteOffset":44668
		},
		{
			"buffer":0,
			"byteLength":8,
			"byteOffset":45036
		},
		{
			"buffer":0,
			"byteLength":32,
			"byteOffset":45044
		},
		{
			"buffer":0,
			"byteLength":256,
			"byteOffset":45076
		}
	],
	"samplers":[
		{
			"magFilter":9728,
			"minFilter":9984
		}
	],
	"buffers":[
		{
			"byteLength":45332,
			"uri":"STR02M_anims.bin"
		}
	]
}
